<svg aria-hidden="true" style="position: absolute; width: 0; height: 0; overflow: hidden;" version="1.1" xmlns="http://www.w3.org/2000/svg" xmlns:xlink="http://www.w3.org/1999/xlink">
<defs>
<symbol id="burger-menu" viewBox="0 0 77 32">
<path stroke-linejoin="round" stroke-linecap="round" stroke-miterlimit="4" stroke-width="8" d="M4.8 27.2h67.2M4.8 4.8h67.2"></path>
</symbol>
<symbol id="facebook" viewBox="0 0 32 32">
<path d="M32 16.040c0-8.854-7.168-16.040-16-16.040s-16 7.186-16 16.040c0 7.763 5.504 14.228 12.8 15.719v-10.907h-3.2v-4.812h3.2v-4.010c0-3.096 2.512-5.614 5.6-5.614h4v4.812h-3.2c-0.88 0-1.6 0.722-1.6 1.604v3.208h4.8v4.812h-4.8v11.148c8.080-0.802 14.4-7.635 14.4-15.96z"></path>
</symbol>
<symbol id="youtube" viewBox="0 0 32 32">
<path d="M18.672 15.722l-3.743-1.747c-0.327-0.152-0.595 0.018-0.595 0.38v3.29c0 0.362 0.268 0.532 0.595 0.38l3.742-1.747c0.328-0.153 0.328-0.403 0.002-0.557zM16 0c-8.837 0-16 7.163-16 16s7.163 16 16 16c8.837 0 16-7.163 16-16s-7.163-16-16-16zM16 22.5c-8.19 0-8.333-0.738-8.333-6.5s0.143-6.5 8.333-6.5c8.19 0 8.333 0.738 8.333 6.5s-0.143 6.5-8.333 6.5z"></path>
</symbol>
<symbol id="instagram" viewBox="0 0 32 32">
<path d="M23.385 0h-14.769c-2.284 0.002-4.474 0.911-6.089 2.526s-2.524 3.805-2.526 6.089v14.769c0.002 2.284 0.911 4.474 2.526 6.089s3.805 2.524 6.089 2.526h14.769c2.284-0.003 4.474-0.911 6.089-2.526s2.524-3.805 2.526-6.089v-14.769c-0.003-2.284-0.911-4.474-2.526-6.089s-3.805-2.524-6.089-2.526zM16 23.385c-1.461 0-2.888-0.433-4.103-1.244s-2.161-1.965-2.72-3.314c-0.559-1.349-0.705-2.834-0.42-4.267s0.988-2.748 2.021-3.781c1.033-1.033 2.349-1.736 3.781-2.021s2.917-0.139 4.267 0.42c1.349 0.559 2.503 1.505 3.314 2.72s1.244 2.642 1.244 4.103c-0.002 1.958-0.781 3.835-2.165 5.22s-3.262 2.163-5.22 2.165zM25.231 8.615c-0.365 0-0.722-0.108-1.026-0.311s-0.54-0.491-0.68-0.829c-0.14-0.337-0.176-0.709-0.105-1.067s0.247-0.687 0.505-0.945c0.258-0.258 0.587-0.434 0.945-0.505s0.729-0.035 1.067 0.105c0.337 0.14 0.626 0.376 0.829 0.68s0.311 0.661 0.311 1.026c0 0.49-0.195 0.959-0.541 1.305s-0.816 0.541-1.305 0.541zM20.923 16c0 0.974-0.289 1.926-0.83 2.735s-1.31 1.441-2.209 1.813c-0.9 0.373-1.889 0.47-2.844 0.28s-1.832-0.659-2.521-1.347c-0.688-0.689-1.157-1.566-1.347-2.521s-0.092-1.945 0.28-2.844 1.004-1.668 1.813-2.209c0.81-0.541 1.761-0.83 2.735-0.83 1.306 0 2.558 0.519 3.481 1.442s1.442 2.175 1.442 3.481z"></path>
</symbol>
<symbol id="close" viewBox="0 0 32 32">
<path fill="#055545" style="fill: var(--color1, #055545)" d="M32 3.721l-3.721-3.721-12.279 12.279-12.279-12.279-3.721 3.721 12.279 12.279-12.279 12.279 3.721 3.721 12.279-12.279 12.279 12.279 3.721-3.721-12.279-12.279 12.279-12.279z"></path>
</symbol>
<symbol id="icon-ship-boat-svg" viewBox="0 0 32 32">
<path fill="#cee8fa" style="fill: var(--color1, #cee8fa)" d="M21.827 25.049h-11.654l-2.499-5.616 8.327-3.386 8.327 3.386z"></path>
<path fill="#2d527c" style="fill: var(--color2, #2d527c)" d="M27.951 24.154h-4.745l1.939-4.357c0.049-0.107 0.077-0.232 0.077-0.364 0-0.373-0.228-0.692-0.552-0.827l-0.006-0.002-7.768-3.159v-1.365l5.926 2.446c0.101 0.043 0.218 0.068 0.341 0.068v0c0.352 0 0.685-0.209 0.828-0.554 0.189-0.457-0.029-0.98-0.486-1.169l-6.609-2.728v-9.608c2.468 1.848 4.156 4.698 4.92 8.336 0.102 0.484 0.576 0.794 1.060 0.692s0.794-0.576 0.692-1.060c-1.001-4.772-3.46-8.359-7.11-10.377-0.001-0.001-0.002-0.001-0.002-0.002s-0.003-0.001-0.004-0.002c-0.007-0.004-0.014-0.008-0.020-0.012-0.011-0.006-0.023-0.010-0.034-0.016-0.020-0.010-0.041-0.020-0.062-0.029-0.016-0.006-0.032-0.011-0.048-0.017-0.021-0.007-0.041-0.014-0.062-0.020-0.017-0.005-0.034-0.007-0.052-0.011-0.020-0.004-0.040-0.008-0.061-0.011-0.018-0.002-0.037-0.003-0.055-0.004-0.020-0.001-0.039-0.003-0.059-0.003s-0.038 0.002-0.058 0.003c-0.019 0.001-0.037 0.002-0.056 0.004-0.020 0.003-0.040 0.007-0.060 0.011-0.018 0.003-0.035 0.007-0.053 0.011-0.021 0.005-0.041 0.012-0.061 0.019-0.016 0.005-0.032 0.011-0.048 0.017-0.021 0.009-0.041 0.019-0.062 0.029-0.011 0.006-0.023 0.010-0.034 0.016-0.007 0.004-0.014 0.008-0.020 0.012-0.001 0.001-0.003 0.001-0.005 0.002s-0.002 0.001-0.002 0.002c-2.819 1.562-4.592 4.313-5.585 6.35-1.281 2.629-2.015 5.663-2.015 8.325v0.897c0 0.494 0.401 0.895 0.895 0.895 0.123 0 0.241-0.025 0.347-0.070l-0.006 0.002 5.926-2.446v1.365l-7.769 3.159c-0.33 0.137-0.558 0.456-0.558 0.829 0 0.132 0.029 0.257 0.080 0.37l-0.002-0.006 1.939 4.357h-4.745c-1.329 0-2.41 1.081-2.41 2.409s1.081 2.409 2.41 2.409h8.843c0.494 0 0.895-0.401 0.895-0.895s-0.401-0.895-0.895-0.895h-8.843c-0.341 0-0.619-0.278-0.619-0.619s0.278-0.619 0.619-0.619h23.901c0.341 0 0.619 0.278 0.619 0.619s-0.278 0.619-0.619 0.619h-9.444c-0.494 0-0.895 0.401-0.895 0.895s0.401 0.895 0.895 0.895h6.155c0.341 0 0.619 0.278 0.619 0.619s-0.278 0.619-0.619 0.619h-16.304c-0.494 0-0.895 0.401-0.895 0.895s0.401 0.895 0.895 0.895h16.304c1.329 0 2.41-1.081 2.41-2.409 0-0 0-0 0-0 0-0.22-0.030-0.433-0.085-0.635l0.004 0.017h0.959c1.329 0 2.41-1.081 2.41-2.409s-1.081-2.409-2.41-2.409zM15.105 2.578v9.564l-5.365 2.214c0.135-4.059 2.096-9.123 5.365-11.778zM10.754 24.154l-1.887-4.24 7.133-2.9 7.133 2.9-1.887 4.24h-10.491z"></path>
</symbol>
</defs>
</svg>