<svg aria-hidden="true" style="position: absolute; width: 0; height: 0; overflow: hidden;" version="1.1" xmlns="http://www.w3.org/2000/svg" xmlns:xlink="http://www.w3.org/1999/xlink">
<defs>
<symbol id="burger-menu" viewBox="0 0 77 32">
<path stroke-linejoin="round" stroke-linecap="round" stroke-miterlimit="4" stroke-width="8" d="M4.8 27.2h67.2M4.8 4.8h67.2"></path>
</symbol>
<symbol id="facebook" viewBox="0 0 32 32">
<path d="M32 16.040c0-8.854-7.168-16.040-16-16.040s-16 7.186-16 16.040c0 7.763 5.504 14.228 12.8 15.719v-10.907h-3.2v-4.812h3.2v-4.010c0-3.096 2.512-5.614 5.6-5.614h4v4.812h-3.2c-0.88 0-1.6 0.722-1.6 1.604v3.208h4.8v4.812h-4.8v11.148c8.080-0.802 14.4-7.635 14.4-15.96z"></path>
</symbol>
<symbol id="youtube" viewBox="0 0 32 32">
<path d="M18.672 15.722l-3.743-1.747c-0.327-0.152-0.595 0.018-0.595 0.38v3.29c0 0.362 0.268 0.532 0.595 0.38l3.742-1.747c0.328-0.153 0.328-0.403 0.002-0.557zM16 0c-8.837 0-16 7.163-16 16s7.163 16 16 16c8.837 0 16-7.163 16-16s-7.163-16-16-16zM16 22.5c-8.19 0-8.333-0.738-8.333-6.5s0.143-6.5 8.333-6.5c8.19 0 8.333 0.738 8.333 6.5s-0.143 6.5-8.333 6.5z"></path>
</symbol>
<symbol id="instagram" viewBox="0 0 32 32">
<path d="M23.385 0h-14.769c-2.284 0.002-4.474 0.911-6.089 2.526s-2.524 3.805-2.526 6.089v14.769c0.002 2.284 0.911 4.474 2.526 6.089s3.805 2.524 6.089 2.526h14.769c2.284-0.003 4.474-0.911 6.089-2.526s2.524-3.805 2.526-6.089v-14.769c-0.003-2.284-0.911-4.474-2.526-6.089s-3.805-2.524-6.089-2.526zM16 23.385c-1.461 0-2.888-0.433-4.103-1.244s-2.161-1.965-2.72-3.314c-0.559-1.349-0.705-2.834-0.42-4.267s0.988-2.748 2.021-3.781c1.033-1.033 2.349-1.736 3.781-2.021s2.917-0.139 4.267 0.42c1.349 0.559 2.503 1.505 3.314 2.72s1.244 2.642 1.244 4.103c-0.002 1.958-0.781 3.835-2.165 5.22s-3.262 2.163-5.22 2.165zM25.231 8.615c-0.365 0-0.722-0.108-1.026-0.311s-0.54-0.491-0.68-0.829c-0.14-0.337-0.176-0.709-0.105-1.067s0.247-0.687 0.505-0.945c0.258-0.258 0.587-0.434 0.945-0.505s0.729-0.035 1.067 0.105c0.337 0.14 0.626 0.376 0.829 0.68s0.311 0.661 0.311 1.026c0 0.49-0.195 0.959-0.541 1.305s-0.816 0.541-1.305 0.541zM20.923 16c0 0.974-0.289 1.926-0.83 2.735s-1.31 1.441-2.209 1.813c-0.9 0.373-1.889 0.47-2.844 0.28s-1.832-0.659-2.521-1.347c-0.688-0.689-1.157-1.566-1.347-2.521s-0.092-1.945 0.28-2.844 1.004-1.668 1.813-2.209c0.81-0.541 1.761-0.83 2.735-0.83 1.306 0 2.558 0.519 3.481 1.442s1.442 2.175 1.442 3.481z"></path>
</symbol>
<symbol id="close" viewBox="0 0 32 32">
<path fill="#055545" style="fill: var(--color1, #055545)" d="M32 3.721l-3.721-3.721-12.279 12.279-12.279-12.279-3.721 3.721 12.279 12.279-12.279 12.279 3.721 3.721 12.279-12.279 12.279 12.279 3.721-3.721-12.279-12.279 12.279-12.279z"></path>
</symbol>
<symbol id="icon-ship-svg" viewBox="0 0 32 32">
<path d="M22.259 0.552c-1.692-0.356-3.915-0.552-6.259-0.552s-4.567 0.196-6.259 0.552c-0.974 0.205-3.938 0.828-3.938 3.090v10.369l-0.392 0.332c-0.005 0.004-0.008 0.008-0.013 0.012l-1.46 1.235c-0.187 0.159-0.306 0.395-0.306 0.659 0 0.044 0.003 0.088 0.010 0.131l-0.001-0.005 1.196 8.089v2.592c0 0.237 0.097 0.463 0.269 0.626l0.452 0.429c0.018 0.017 0.036 0.032 0.055 0.047 0.155 0.124 0.707 0.53 1.296 0.53 0.635 0 0.941-0.245 1.296-0.53 0.4-0.32 0.853-0.683 1.734-0.683s1.334 0.363 1.734 0.683c0.355 0.284 0.661 0.529 1.296 0.529s0.941-0.245 1.296-0.53c0.4-0.32 0.853-0.683 1.734-0.683s1.334 0.363 1.734 0.683c0.355 0.284 0.662 0.53 1.296 0.53s0.941-0.245 1.296-0.53c0.4-0.32 0.853-0.683 1.734-0.683s1.334 0.363 1.734 0.684c0.355 0.284 0.662 0.529 1.296 0.529s0.941-0.245 1.296-0.529c0.143-0.115 0.438-0.382 0.495-0.435 0.173-0.158 0.281-0.385 0.281-0.637 0 0 0 0 0 0v0-2.622l1.195-8.089c0.006-0.038 0.009-0.082 0.009-0.126 0-0.264-0.118-0.499-0.304-0.658l-0.001-0.001-1.46-1.235c-0.005-0.004-0.009-0.008-0.013-0.012l-0.392-0.332v-10.369c0-2.262-2.963-2.886-3.937-3.090zM7.529 3.642c0-0.393 0.445-0.955 2.567-1.402 1.579-0.332 3.676-0.515 5.904-0.515s4.325 0.183 5.904 0.515c2.121 0.446 2.567 1.008 2.567 1.402v8.909l-7.913-6.694c-0.149-0.127-0.344-0.204-0.557-0.204s-0.408 0.077-0.559 0.205l-7.912 6.693v-8.909h-0zM25.446 24.275c-0.006 0.038-0.009 0.082-0.009 0.126v0 2.3c-0.036 0.033-0.078 0.069-0.121 0.104l-0.008 0.006c-0.071 0.056-0.149 0.119-0.194 0.151-0.013 0-0.035 0-0.048 0-0.045-0.031-0.123-0.094-0.194-0.151-0.463-0.371-1.326-1.062-2.812-1.062s-2.349 0.691-2.812 1.062c-0.071 0.056-0.149 0.119-0.194 0.151-0.013 0-0.034 0-0.048 0-0.045-0.031-0.123-0.094-0.194-0.151-0.463-0.371-1.326-1.062-2.812-1.062s-2.349 0.691-2.812 1.062c-0.071 0.056-0.149 0.119-0.194 0.151-0.013 0-0.034 0-0.047 0-0.045-0.031-0.123-0.094-0.194-0.151-0.463-0.371-1.326-1.062-2.812-1.062s-2.349 0.691-2.813 1.062c-0.068 0.054-0.143 0.115-0.189 0.147-0.058-0.023-0.155-0.080-0.225-0.131l-0.15-0.142v-2.284c0-0.042-0.003-0.084-0.009-0.126l-1.135-7.677 1.804-1.526c0.004-0.004 0.008-0.008 0.012-0.011l8.764-7.413 8.764 7.413c0.004 0.004 0.008 0.008 0.012 0.012l1.804 1.526-1.135 7.677zM26.824 29.591c-0.4 0.32-0.853 0.683-1.734 0.683s-1.334-0.363-1.734-0.683c-0.355-0.284-0.662-0.529-1.296-0.529s-0.941 0.245-1.296 0.53c-0.4 0.32-0.853 0.683-1.734 0.683s-1.334-0.363-1.734-0.683c-0.355-0.284-0.662-0.53-1.296-0.53s-0.941 0.246-1.296 0.53c-0.4 0.32-0.853 0.683-1.734 0.683s-1.334-0.363-1.734-0.683c-0.355-0.284-0.662-0.53-1.296-0.53s-0.941 0.246-1.296 0.53c-0.4 0.32-0.853 0.683-1.734 0.683s-1.334-0.363-1.734-0.683c-0.372-0.298-0.915-0.238-1.213 0.134s-0.238 0.915 0.134 1.213c0.463 0.371 1.326 1.062 2.812 1.062s2.349-0.691 2.812-1.062c0.071-0.057 0.149-0.119 0.194-0.151 0.013-0 0.034-0 0.047 0 0.045 0.031 0.123 0.094 0.194 0.151 0.463 0.371 1.326 1.062 2.812 1.062s2.349-0.691 2.812-1.062c0.071-0.056 0.149-0.119 0.194-0.151 0.013-0 0.034-0 0.047 0 0.045 0.031 0.123 0.094 0.194 0.151 0.463 0.371 1.326 1.062 2.812 1.062s2.349-0.691 2.813-1.062c0.071-0.056 0.149-0.119 0.194-0.151 0.013-0 0.034-0 0.047 0 0.045 0.031 0.123 0.094 0.194 0.151 0.464 0.371 1.326 1.062 2.813 1.062s2.349-0.691 2.813-1.062c0.372-0.298 0.432-0.841 0.134-1.213s-0.841-0.432-1.213-0.134z"></path>
</symbol>
<symbol id="icon-ship-boat-svg" viewBox="0 0 32 32">
<path fill="#cee8fa" style="fill: var(--color1, #cee8fa)" d="M21.827 25.049h-11.654l-2.499-5.616 8.327-3.386 8.327 3.386z"></path>
<path fill="#2d527c" style="fill: var(--color2, #2d527c)" d="M27.951 24.154h-4.745l1.939-4.357c0.049-0.107 0.077-0.232 0.077-0.364 0-0.373-0.228-0.692-0.552-0.827l-0.006-0.002-7.768-3.159v-1.365l5.926 2.446c0.101 0.043 0.218 0.068 0.341 0.068v0c0.352 0 0.685-0.209 0.828-0.554 0.189-0.457-0.029-0.98-0.486-1.169l-6.609-2.728v-9.608c2.468 1.848 4.156 4.698 4.92 8.336 0.102 0.484 0.576 0.794 1.060 0.692s0.794-0.576 0.692-1.060c-1.001-4.772-3.46-8.359-7.11-10.377-0.001-0.001-0.002-0.001-0.002-0.002s-0.003-0.001-0.004-0.002c-0.007-0.004-0.014-0.008-0.020-0.012-0.011-0.006-0.023-0.010-0.034-0.016-0.020-0.010-0.041-0.020-0.062-0.029-0.016-0.006-0.032-0.011-0.048-0.017-0.021-0.007-0.041-0.014-0.062-0.020-0.017-0.005-0.034-0.007-0.052-0.011-0.020-0.004-0.040-0.008-0.061-0.011-0.018-0.002-0.037-0.003-0.055-0.004-0.020-0.001-0.039-0.003-0.059-0.003s-0.038 0.002-0.058 0.003c-0.019 0.001-0.037 0.002-0.056 0.004-0.020 0.003-0.040 0.007-0.060 0.011-0.018 0.003-0.035 0.007-0.053 0.011-0.021 0.005-0.041 0.012-0.061 0.019-0.016 0.005-0.032 0.011-0.048 0.017-0.021 0.009-0.041 0.019-0.062 0.029-0.011 0.006-0.023 0.010-0.034 0.016-0.007 0.004-0.014 0.008-0.020 0.012-0.001 0.001-0.003 0.001-0.005 0.002s-0.002 0.001-0.002 0.002c-2.819 1.562-4.592 4.313-5.585 6.35-1.281 2.629-2.015 5.663-2.015 8.325v0.897c0 0.494 0.401 0.895 0.895 0.895 0.123 0 0.241-0.025 0.347-0.070l-0.006 0.002 5.926-2.446v1.365l-7.769 3.159c-0.33 0.137-0.558 0.456-0.558 0.829 0 0.132 0.029 0.257 0.080 0.37l-0.002-0.006 1.939 4.357h-4.745c-1.329 0-2.41 1.081-2.41 2.409s1.081 2.409 2.41 2.409h8.843c0.494 0 0.895-0.401 0.895-0.895s-0.401-0.895-0.895-0.895h-8.843c-0.341 0-0.619-0.278-0.619-0.619s0.278-0.619 0.619-0.619h23.901c0.341 0 0.619 0.278 0.619 0.619s-0.278 0.619-0.619 0.619h-9.444c-0.494 0-0.895 0.401-0.895 0.895s0.401 0.895 0.895 0.895h6.155c0.341 0 0.619 0.278 0.619 0.619s-0.278 0.619-0.619 0.619h-16.304c-0.494 0-0.895 0.401-0.895 0.895s0.401 0.895 0.895 0.895h16.304c1.329 0 2.41-1.081 2.41-2.409 0-0 0-0 0-0 0-0.22-0.030-0.433-0.085-0.635l0.004 0.017h0.959c1.329 0 2.41-1.081 2.41-2.409s-1.081-2.409-2.41-2.409zM15.105 2.578v9.564l-5.365 2.214c0.135-4.059 2.096-9.123 5.365-11.778zM10.754 24.154l-1.887-4.24 7.133-2.9 7.133 2.9-1.887 4.24h-10.491z"></path>
</symbol>
<symbol id="icon-boat-svg" viewBox="0 0 32 32">
<path fill="#8599a4" style="fill: var(--color3, #8599a4)" d="M26.797 20.109h-22.925v-7.381h27.509z"></path>
<path fill="#3e4152" style="fill: var(--color4, #3e4152)" d="M26.797 20.391h-22.925c-0.156 0-0.281-0.125-0.281-0.281v-7.381c0-0.156 0.125-0.281 0.281-0.281h27.509c0.103 0 0.197 0.056 0.247 0.144 0.050 0.091 0.047 0.197-0.006 0.284l-4.587 7.381c-0.050 0.084-0.141 0.134-0.238 0.134zM4.153 19.828h22.484l4.238-6.819h-26.722v6.819z"></path>
<path fill="#c1e7d8" style="fill: var(--color5, #c1e7d8)" d="M5.412 12.728l1.912-6.219h2.188l1.228-2.463h3.966l0.819 1.641h3.281l1.641 2.7h3.281l1.641 4.341z"></path>
<path fill="#3e4152" style="fill: var(--color4, #3e4152)" d="M25.775 13.009h-20.744l2.088-6.781h2.222l1.231-2.459h4.313l0.819 1.641h3.266l1.641 2.7h3.316l1.85 4.9zM5.791 12.447h19.169l-1.428-3.778h-3.244l-1.641-2.7h-3.294l-0.822-1.641h-3.616l-1.231 2.459h-2.153l-1.741 5.659z"></path>
<path fill="#8599a4" style="fill: var(--color3, #8599a4)" d="M13.203 5.688h2.322z"></path>
<path fill="#3e4152" style="fill: var(--color4, #3e4152)" d="M15.525 5.969h-2.325c-0.156 0-0.281-0.125-0.281-0.281s0.125-0.281 0.281-0.281h2.325c0.156 0 0.281 0.125 0.281 0.281s-0.125 0.281-0.281 0.281z"></path>
<path fill="#9b5c77" style="fill: var(--color6, #9b5c77)" d="M8.281 8.969h2.325v1.912h-2.325z"></path>
<path fill="#3e4152" style="fill: var(--color4, #3e4152)" d="M10.606 11.162h-2.325c-0.156 0-0.281-0.125-0.281-0.281v-1.912c0-0.156 0.125-0.281 0.281-0.281h2.325c0.156 0 0.281 0.125 0.281 0.281v1.912c0 0.156-0.128 0.281-0.281 0.281zM8.563 10.6h1.762v-1.35h-1.762v1.35z"></path>
<path fill="#9b5c77" style="fill: var(--color6, #9b5c77)" d="M12.375 8.969h2.325v1.912h-2.325z"></path>
<path fill="#3e4152" style="fill: var(--color4, #3e4152)" d="M14.697 11.162h-2.322c-0.156 0-0.281-0.125-0.281-0.281v-1.912c0-0.156 0.125-0.281 0.281-0.281h2.325c0.156 0 0.281 0.125 0.281 0.281v1.912c-0.003 0.156-0.128 0.281-0.284 0.281zM12.656 10.6h1.762v-1.35h-1.762v1.35z"></path>
<path fill="#9b5c77" style="fill: var(--color6, #9b5c77)" d="M16.466 8.969h2.325v1.912h-2.325z"></path>
<path fill="#3e4152" style="fill: var(--color4, #3e4152)" d="M18.791 11.162h-2.325c-0.156 0-0.281-0.125-0.281-0.281v-1.912c0-0.156 0.125-0.281 0.281-0.281h2.325c0.156 0 0.281 0.125 0.281 0.281v1.912c0 0.156-0.128 0.281-0.281 0.281zM16.747 10.6h1.762v-1.35h-1.762v1.35zM4.787 24.456c-0.156 0-0.281-0.125-0.281-0.281 0-1.050-0.853-1.903-1.903-1.903s-1.903 0.853-1.903 1.903c0 0.156-0.125 0.281-0.281 0.281s-0.281-0.125-0.281-0.281c0-1.359 1.106-2.466 2.466-2.466s2.466 1.106 2.466 2.466c0 0.153-0.125 0.281-0.281 0.281z"></path>
<path fill="#3e4152" style="fill: var(--color4, #3e4152)" d="M9.159 24.456c-0.156 0-0.281-0.125-0.281-0.281 0-1.050-0.853-1.903-1.903-1.903s-1.903 0.853-1.903 1.903c0 0.156-0.125 0.281-0.281 0.281s-0.281-0.125-0.281-0.281c0-1.359 1.106-2.466 2.466-2.466s2.466 1.106 2.466 2.466c0 0.153-0.125 0.281-0.281 0.281z"></path>
<path fill="#3e4152" style="fill: var(--color4, #3e4152)" d="M13.528 24.456c-0.156 0-0.281-0.125-0.281-0.281 0-1.050-0.853-1.903-1.903-1.903s-1.903 0.853-1.903 1.903c0 0.156-0.125 0.281-0.281 0.281s-0.281-0.125-0.281-0.281c0-1.359 1.106-2.466 2.466-2.466s2.466 1.106 2.466 2.466c0 0.153-0.125 0.281-0.281 0.281z"></path>
<path fill="#3e4152" style="fill: var(--color4, #3e4152)" d="M17.859 24.456c-0.156 0-0.281-0.125-0.281-0.281 0-1.050-0.853-1.903-1.903-1.903s-1.903 0.853-1.903 1.903c0 0.156-0.125 0.281-0.281 0.281s-0.281-0.125-0.281-0.281c0-1.359 1.106-2.466 2.466-2.466s2.466 1.106 2.466 2.466c0 0.153-0.125 0.281-0.281 0.281z"></path>
<path fill="#3e4152" style="fill: var(--color4, #3e4152)" d="M22.191 24.456c-0.156 0-0.281-0.125-0.281-0.281 0-1.050-0.853-1.903-1.903-1.903s-1.903 0.853-1.903 1.903c0 0.156-0.125 0.281-0.281 0.281s-0.281-0.125-0.281-0.281c0-1.359 1.106-2.466 2.466-2.466s2.466 1.106 2.466 2.466c0 0.153-0.128 0.281-0.281 0.281zM12.619 28.247c-0.156 0-0.281-0.125-0.281-0.281 0-1.050-0.853-1.903-1.903-1.903s-1.903 0.853-1.903 1.903c0 0.156-0.125 0.281-0.281 0.281s-0.281-0.125-0.281-0.281c0-1.359 1.106-2.466 2.466-2.466s2.466 1.106 2.466 2.466c0 0.156-0.128 0.281-0.281 0.281z"></path>
<path fill="#3e4152" style="fill: var(--color4, #3e4152)" d="M16.988 28.247c-0.156 0-0.281-0.125-0.281-0.281 0-1.050-0.853-1.903-1.903-1.903s-1.903 0.853-1.903 1.903c0 0.156-0.125 0.281-0.281 0.281s-0.281-0.125-0.281-0.281c0-1.359 1.106-2.466 2.466-2.466s2.466 1.106 2.466 2.466c0 0.156-0.125 0.281-0.281 0.281z"></path>
<path fill="#3e4152" style="fill: var(--color4, #3e4152)" d="M21.359 28.247c-0.156 0-0.281-0.125-0.281-0.281 0-1.050-0.853-1.903-1.903-1.903s-1.903 0.853-1.903 1.903c0 0.156-0.125 0.281-0.281 0.281s-0.281-0.125-0.281-0.281c0-1.359 1.106-2.466 2.466-2.466s2.466 1.106 2.466 2.466c0 0.156-0.125 0.281-0.281 0.281z"></path>
<path fill="#3e4152" style="fill: var(--color4, #3e4152)" d="M25.688 28.247c-0.156 0-0.281-0.125-0.281-0.281 0-1.050-0.853-1.903-1.903-1.903s-1.903 0.853-1.903 1.903c0 0.156-0.125 0.281-0.281 0.281s-0.281-0.125-0.281-0.281c0-1.359 1.106-2.466 2.466-2.466s2.466 1.106 2.466 2.466c0 0.156-0.125 0.281-0.281 0.281z"></path>
<path fill="#3e4152" style="fill: var(--color4, #3e4152)" d="M30.031 28.247c-0.156 0-0.281-0.125-0.281-0.281 0-1.050-0.853-1.903-1.903-1.903s-1.903 0.853-1.903 1.903c0 0.156-0.125 0.281-0.281 0.281s-0.281-0.125-0.281-0.281c0-1.359 1.106-2.466 2.466-2.466s2.466 1.106 2.466 2.466c0 0.156-0.125 0.281-0.281 0.281z"></path>
</symbol>
<svg id="icon-boat1-svg" xmlns="http://www.w3.org/2000/svg" class="icon" viewBox="0 0 1024 1024">
  <path fill="#B6CDEF" d="M523.8 995h-25.2c-8 0-14.5-6.5-14.5-14.5V146.2c0-8 6.5-14.5 14.5-14.5h25.2c8 0 14.5 6.5 14.5 14.5v834.3c0 8-6.5 14.5-14.5 14.5z"/>
  <path fill="#0F53A8" d="M523.8 1010h-25.2c-16.2 0-29.5-13.2-29.5-29.5V146.2c0-16.2 13.2-29.5 29.5-29.5h25.2c16.2 0 29.5 13.2 29.5 29.5v834.3c0 16.3-13.2 29.5-29.5 29.5zm-24.6-30h24.1V146.8h-24.1V980z"/>
  <path fill="#89B7F5" d="M432.4 101.8a78.8 78.8 0 1 0 157.6 0 78.8 78.8 0 1 0-157.6 0Z"/>
  <path fill="#0F53A8" d="M511.2 195.6c-51.7 0-93.8-42.1-93.8-93.8S459.5 8 511.2 8 605 50.1 605 101.8s-42.1 93.8-93.8 93.8zm0-157.6c-35.2 0-63.8 28.6-63.8 63.8s28.6 63.8 63.8 63.8c35.2 0 63.8-28.6 63.8-63.8S546.4 38 511.2 38zm-1.6 972c-92.2 0-181-31.4-256.9-90.7-73.7-57.6-130.9-137.8-165.4-232-2.1-5.7-.5-12 3.9-16.1 4.4-4.1 10.9-5.2 16.4-2.7l60.2 27.2c7.6 3.4 10.9 12.3 7.5 19.8-3.4 7.6-12.3 10.9-19.8 7.5l-26.1-11.8c33 74.2 81.6 137.4 141.8 184.5 70.6 55.2 153.1 84.3 238.5 84.3 86.8 0 170.4-30 241.8-86.9 70.1-55.8 123.8-133.6 155.5-224.8 2.7-7.8 11.3-12 19.1-9.3 7.8 2.7 12 11.3 9.3 19.1-33.5 96.6-90.6 179-165.1 238.4-76.9 61.2-167 93.5-260.7 93.5z"/>
  <path fill="#0F53A8" d="M512.8 1010c-93.7 0-183.7-32.3-260.4-93.4-74.5-59.4-131.6-141.8-165.1-238.4-2.7-7.8 1.4-16.4 9.3-19.1 7.8-2.7 16.4 1.4 19.1 9.3 31.6 91.2 85.4 168.9 155.5 224.8C342.4 949.9 426 980 512.8 980c85.4 0 167.9-29.2 238.5-84.3 60.2-47 108.8-110.3 141.8-184.5L867 723c-7.6 3.4-16.4 0-19.8-7.5-3.4-7.6-.1-16.4 7.5-19.8l60.2-27.2c5.5-2.5 12-1.4 16.4 2.7 4.4 4.1 6 10.5 3.9 16.1-34.5 94.2-91.6 174.5-165.4 232-76 59.3-164.8 90.7-257 90.7zm231.6-650.2H278.1c-8.3 0-15-6.7-15-15s6.7-15 15-15h466.3c8.3 0 15 6.7 15 15s-6.8 15-15 15zM678.7 478h-335c-8.3 0-15-6.7-15-15s6.7-15 15-15h334.9c8.3 0 15 6.7 15 15s-6.6 15-14.9 15z"/>
</defs>
</svg>